<svg width="12" height="13" viewBox="0 0 12 13" fill="none" xmlns="http://www.w3.org/2000/svg">
<g clip-path="url(#clip0_6022_242)">
<mask id="mask0_6022_242" style="mask-type:luminance" maskUnits="userSpaceOnUse" x="-3" y="-2" width="18" height="17">
<path d="M-2.40039 -1.90002H14.3996V14.9H-2.40039V-1.90002Z" fill="white"/>
</mask>
<g mask="url(#mask0_6022_242)">
<path d="M12 6.5C12 3.1863 9.3137 0.500008 6 0.500008C2.6863 0.500008 0 3.1863 0 6.5C0 9.31388 1.93716 11.6749 4.55054 12.3233V8.33351H3.3133V6.5H4.55054V5.70995C4.55054 3.66774 5.47474 2.72118 7.4797 2.72118C7.85981 2.72118 8.5157 2.7957 8.78402 2.87025V4.53234C8.6424 4.51744 8.39645 4.50997 8.09086 4.50997C7.10702 4.50997 6.72689 4.88264 6.72689 5.85157V6.5H8.6867L8.35003 8.33351H6.72689V12.4561C9.69775 12.0972 12 9.56763 12 6.5Z" fill="#0866FF"/>
<path d="M8.35021 8.33351L8.68691 6.5H6.72709V5.85155C6.72709 4.88262 7.1072 4.50997 8.09104 4.50997C8.39663 4.50997 8.64258 4.51741 8.7842 4.53232V2.87025C8.51588 2.7957 7.85999 2.72116 7.47988 2.72116C5.47494 2.72116 4.55072 3.66774 4.55072 5.70995V6.5H3.31348V8.33351H4.55072V12.3233C5.01496 12.4385 5.50036 12.5 6.00018 12.5C6.24628 12.5 6.48877 12.4848 6.72709 12.4561V8.33351H8.35021Z" fill="white"/>
</g>
</g>
<defs>
<clipPath id="clip0_6022_242">
<rect width="12" height="12" fill="white" transform="translate(0 0.5)"/>
</clipPath>
</defs>
</svg>
