<svg width="12" height="13" viewBox="0 0 12 13" fill="none" xmlns="http://www.w3.org/2000/svg">
<path d="M8.64222 9.139V12.2056C8.64222 12.3667 8.51213 12.4968 8.35105 12.4968H0.291172C0.130098 12.4968 0 12.3667 0 12.2056L0 4.15189C0 3.99082 0.130098 3.86072 0.291172 3.86072H3.35157V8.84783C3.35157 9.00891 3.48167 9.139 3.64274 9.139H8.64222Z" fill="#4C00FF"/>
<path d="M11.9996 4.81485C11.9996 7.39204 10.4942 9.13288 8.64188 9.13908V5.89281C8.64188 5.79988 8.60471 5.70695 8.53656 5.645L6.85148 3.95991C6.78334 3.89177 6.6966 3.8546 6.60368 3.8546H3.35742V0.79418C3.35742 0.633106 3.48752 0.503007 3.64859 0.503007L8.18963 0.503007C10.3455 0.496812 11.9996 2.23146 11.9996 4.81485Z" fill="#FF5252"/>
<path d="M8.53656 5.63876C8.60471 5.70691 8.64188 5.79364 8.64188 5.88657V9.13284H3.64859C3.48752 9.13284 3.35742 9.00274 3.35742 8.84167V3.85455H6.60368C6.6966 3.85455 6.78953 3.89172 6.85148 3.95987L8.53656 5.63876Z" fill="black"/>
</svg>
