<svg width="12" height="13" viewBox="0 0 12 13" fill="none" xmlns="http://www.w3.org/2000/svg">
<g clip-path="url(#clip0_6022_309)">
<path d="M2.56968 8.05907C2.56968 8.74884 2.0122 9.30632 1.32244 9.30632C0.632676 9.30632 0.0751953 8.74884 0.0751953 8.05907C0.0751953 7.36931 0.632676 6.81183 1.32244 6.81183H2.56968V8.05907ZM3.19331 8.05907C3.19331 7.36931 3.75079 6.81183 4.44055 6.81183C5.13031 6.81183 5.68779 7.36931 5.68779 8.05907V11.1772C5.68779 11.8669 5.13031 12.4244 4.44055 12.4244C3.75079 12.4244 3.19331 11.8669 3.19331 11.1772V8.05907Z" fill="#E01E5A"/>
<path d="M4.44121 3.05119C3.75145 3.05119 3.19397 2.49371 3.19397 1.80395C3.19397 1.11418 3.75145 0.556702 4.44121 0.556702C5.13097 0.556702 5.68845 1.11418 5.68845 1.80395V3.05119H4.44121ZM4.44121 3.68426C5.13097 3.68426 5.68845 4.24174 5.68845 4.93151C5.68845 5.62127 5.13097 6.17875 4.44121 6.17875H1.31365C0.623887 6.17875 0.0664062 5.62127 0.0664062 4.93151C0.0664062 4.24174 0.623887 3.68426 1.31365 3.68426H4.44121Z" fill="#36C5F0"/>
<path d="M9.4394 4.93151C9.4394 4.24174 9.99688 3.68426 10.6866 3.68426C11.3764 3.68426 11.9339 4.24174 11.9339 4.93151C11.9339 5.62127 11.3764 6.17875 10.6866 6.17875H9.4394V4.93151ZM8.81578 4.93151C8.81578 5.62127 8.2583 6.17875 7.56853 6.17875C6.87877 6.17875 6.32129 5.62127 6.32129 4.93151V1.80395C6.32129 1.11418 6.87877 0.556702 7.56853 0.556702C8.2583 0.556702 8.81578 1.11418 8.81578 1.80395V4.93151Z" fill="#2EB67D"/>
<path d="M7.56853 9.92994C8.2583 9.92994 8.81578 10.4874 8.81578 11.1772C8.81578 11.8669 8.2583 12.4244 7.56853 12.4244C6.87877 12.4244 6.32129 11.8669 6.32129 11.1772V9.92994H7.56853ZM7.56853 9.30632C6.87877 9.30632 6.32129 8.74884 6.32129 8.05907C6.32129 7.36931 6.87877 6.81183 7.56853 6.81183H10.6961C11.3859 6.81183 11.9433 7.36931 11.9433 8.05907C11.9433 8.74884 11.3859 9.30632 10.6961 9.30632H7.56853Z" fill="#ECB22E"/>
</g>
<defs>
<clipPath id="clip0_6022_309">
<rect width="12" height="12" fill="white" transform="translate(0 0.5)"/>
</clipPath>
</defs>
</svg>
