<?xml version="1.0" encoding="UTF-8"?>
<svg width="256px" height="256px" viewBox="0 0 256 256" version="1.1" xmlns="http://www.w3.org/2000/svg" xmlns:xlink="http://www.w3.org/1999/xlink">
    <!-- Generator: Sketch 51.3 (57544) - http://www.bohemiancoding.com/sketch -->
    <title>linkedin</title>
    <desc>Created with Sketch.</desc>
    <defs></defs>
    <g id="Page-1" stroke="none" stroke-width="1" fill="none" fill-rule="evenodd">
        <g id="linkedin">
            <rect id="Rectangle" fill="#FFFFFF" x="13" y="17" width="225" height="214"></rect>
            <path d="M218.124,218.128 L180.193,218.128 L180.193,158.725 C180.193,144.56 179.94,126.325 160.465,126.325 C140.709,126.325 137.686,141.758 137.686,157.694 L137.686,218.124 L99.756,218.124 L99.756,95.967 L136.169,95.967 L136.169,112.661 L136.679,112.661 C144.104086,99.9657867 157.909969,92.3834641 172.607,92.929 C211.052,92.929 218.14,118.217 218.14,151.115 L218.124,218.128 Z M56.956,79.27 C44.799,79.273 34.942,69.419 34.94,57.262 C34.938,45.105 44.791,35.248 56.948,35.246 C69.105,35.243 78.962,45.096 78.964,57.254 C78.9656571,69.4106633 69.1126631,79.2672389 56.956,79.27 Z M75.922,218.13 L37.95,218.13 L37.95,95.966 L75.92,95.966 L75.922,218.13 Z M237.034,0.018 L18.891,0.018 C8.58,-0.097 0.126,8.161 0,18.471 L0,237.525 C0.122,247.84 8.576,256.107 18.89,255.999 L237.034,255.999 C247.37,256.127 255.857,247.86 256,237.525 L256,18.455 C255.853,8.125 247.365,-0.133 237.034,0.002 L237.034,0.018 Z" id="Shape" fill="#0A66C2" fill-rule="nonzero"></path>
        </g>
    </g>
</svg>