<svg width="28" height="28" viewBox="0 0 28 28" fill="none" xmlns="http://www.w3.org/2000/svg">
<rect width="28" height="28" rx="6" fill="#252525"/>
<path d="M15.3332 7.513V10.2667C15.3332 10.6401 15.3332 10.8267 15.4058 10.9694C15.4697 11.0948 15.5717 11.1968 15.6972 11.2607C15.8398 11.3334 16.0265 11.3334 16.3998 11.3334H19.1535M15.3332 17.3333H11.3332M16.6665 14.6666H11.3332M19.3332 12.6588V17.4666C19.3332 18.5868 19.3332 19.1468 19.1152 19.5746C18.9234 19.951 18.6175 20.2569 18.2412 20.4487C17.8133 20.6666 17.2533 20.6666 16.1332 20.6666H11.8665C10.7464 20.6666 10.1863 20.6666 9.75852 20.4487C9.3822 20.2569 9.07624 19.951 8.88449 19.5746C8.6665 19.1468 8.6665 18.5868 8.6665 17.4666V10.5333C8.6665 9.41321 8.6665 8.85316 8.88449 8.42533C9.07624 8.04901 9.3822 7.74305 9.75852 7.5513C10.1863 7.33331 10.7464 7.33331 11.8665 7.33331H14.0077C14.4969 7.33331 14.7415 7.33331 14.9716 7.38857C15.1757 7.43757 15.3708 7.51838 15.5497 7.62803C15.7516 7.75172 15.9245 7.92467 16.2704 8.27057L18.3959 10.3961C18.7418 10.742 18.9148 10.9149 19.0385 11.1167C19.1481 11.2957 19.2289 11.4908 19.2779 11.6948C19.3332 11.925 19.3332 12.1696 19.3332 12.6588Z" stroke="white" stroke-width="1.35" stroke-linecap="round" stroke-linejoin="round"/>
</svg>
