<svg width="12" height="11" viewBox="0 0 12 11" fill="none" xmlns="http://www.w3.org/2000/svg">
<mask id="mask0_6022_256" style="mask-type:luminance" maskUnits="userSpaceOnUse" x="0" y="0" width="12" height="11">
<path d="M12 0H0V11H12V0Z" fill="white"/>
</mask>
<g mask="url(#mask0_6022_256)">
<path d="M6 8.61669C2.63625 8.61669 0 7.24719 0 5.50003C0 3.75286 2.63625 2.38336 6 2.38336C9.36375 2.38336 12 3.75286 12 5.50003C12 7.24719 9.36375 8.61669 6 8.61669ZM6 3.30003C3.60562 3.30003 0.9375 4.20386 0.9375 5.50003C0.9375 6.7962 3.60562 7.70003 6 7.70003C8.39437 7.70003 11.0625 6.7962 11.0625 5.50003C11.0625 4.20386 8.39437 3.30003 6 3.30003Z" fill="#4EC375"/>
<path d="M8.03028 10.824C6.52653 10.824 4.60278 9.37019 3.23778 7.05836C2.4634 5.74753 1.99278 4.36336 1.91028 3.15886C1.82028 1.83886 2.20653 0.867194 2.99778 0.41986C3.78903 -0.0274737 4.84465 0.132026 5.96778 0.867194C6.9934 1.54003 7.9834 2.63086 8.75778 3.94169C10.4397 6.79069 10.5447 9.70753 8.99778 10.5802C8.70528 10.7452 8.37903 10.824 8.0284 10.824H8.03028ZM3.98403 1.08903C3.78903 1.08903 3.61465 1.12936 3.4684 1.21369C3.00903 1.47219 2.78215 2.15969 2.8459 3.09836C2.91903 4.16536 3.34653 5.41019 4.04965 6.60186C5.2459 8.62953 7.38153 10.4372 8.52903 9.78819C9.67653 9.13919 9.14403 6.42953 7.9459 4.40186C7.24278 3.21019 6.35403 2.22569 5.44653 1.63169C4.90278 1.27603 4.39653 1.09269 3.98215 1.09269L3.98403 1.08903Z" fill="#1463FF"/>
<path d="M3.98267 10.8295C3.62455 10.8295 3.29455 10.747 3.00017 10.5802C2.20892 10.1328 1.8208 9.16117 1.91267 7.84117C1.99517 6.63667 2.4658 5.2525 3.24017 3.94167C4.92205 1.09267 7.4533 -0.454662 9.00017 0.419838C10.547 1.29434 10.442 4.20934 8.76017 7.05834C7.9858 8.36917 6.9958 9.46 5.97017 10.1328C5.26517 10.5948 4.58642 10.8295 3.98267 10.8295ZM7.99142 1.07984C6.79892 1.07984 5.07955 2.65834 4.05017 4.4C3.34705 5.59167 2.91955 6.83467 2.84642 7.9035C2.78267 8.84217 3.00955 9.52784 3.46892 9.78817C3.9283 10.0467 4.6483 9.89634 5.44892 9.372C6.3583 8.77617 7.24517 7.79167 7.9483 6.60184C9.14455 4.57417 9.67892 1.86267 8.53142 1.2155C8.37017 1.12384 8.1883 1.08167 7.99142 1.08167V1.07984Z" fill="#FFBC00"/>
<path d="M6 7.7C3.60562 7.7 0.9375 6.79617 0.9375 5.5H0C0 7.24717 2.63625 8.61667 6 8.61667V7.7Z" fill="#4EC375"/>
<path d="M6.21574 2.22752C5.96449 2.00019 5.70762 1.79852 5.44887 1.62802C5.19387 1.46119 4.94637 1.33102 4.71387 1.24119L5.02512 0.375854C5.33262 0.491354 5.64949 0.654521 5.97199 0.867188C6.31137 1.09085 6.64887 1.35852 6.97512 1.66652L6.21762 2.22752H6.21574Z" fill="#1463FF"/>
<path d="M6.96742 9.62137C6.56242 9.40871 6.14055 9.09154 5.7318 8.70837L5.01367 9.31887C5.43367 9.71671 5.86492 10.043 6.29242 10.2887L6.9693 9.62137H6.96742Z" fill="#1463FF"/>
<path d="M10.32 4.37986C9.36 3.71253 7.61812 3.30003 6 3.30003V2.38336C7.88438 2.38336 9.54 2.81236 10.6331 3.49803L10.32 4.37986Z" fill="#4EC375"/>
</g>
</svg>
