<svg width="12" height="13" viewBox="0 0 12 13" fill="none" xmlns="http://www.w3.org/2000/svg">
<g clip-path="url(#clip0_6022_272)">
<path fill-rule="evenodd" clip-rule="evenodd" d="M0 6.5C0 3.18629 2.68629 0.5 6 0.5C9.31371 0.5 12 3.18629 12 6.5C12 9.81371 9.31371 12.5 6 12.5C2.68629 12.5 0 9.81371 0 6.5Z" fill="#635BFF"/>
<path fill-rule="evenodd" clip-rule="evenodd" d="M5.53222 5.16501C5.53222 4.88301 5.76322 4.77201 6.14722 4.77201C6.69922 4.77201 7.39522 4.94001 7.94722 5.23701V3.53301C7.34422 3.29301 6.75022 3.20001 6.15022 3.20001C4.67722 3.20001 3.69922 3.96801 3.69922 5.25201C3.69922 7.25301 6.45622 6.93501 6.45622 7.79901C6.45622 8.13201 6.16522 8.24001 5.76022 8.24001C5.15722 8.24001 4.38922 7.99401 3.78022 7.66101V9.38601C4.45522 9.67701 5.13622 9.80001 5.76022 9.80001C7.26922 9.80001 8.30722 9.05301 8.30722 7.75401C8.29522 5.59401 5.53222 5.97801 5.53222 5.16501Z" fill="white"/>
</g>
<defs>
<clipPath id="clip0_6022_272">
<rect width="12" height="12" fill="white" transform="translate(0 0.5)"/>
</clipPath>
</defs>
</svg>
