<svg width="16" height="16" viewBox="0 0 16 16" fill="none" xmlns="http://www.w3.org/2000/svg">
<path d="M6.3335 7.33333C7.80626 7.33333 9.00016 6.13943 9.00016 4.66667C9.00016 3.19391 7.80626 2 6.3335 2C4.86074 2 3.66683 3.19391 3.66683 4.66667C3.66683 6.13943 4.86074 7.33333 6.3335 7.33333Z" fill="#F4F4F4"/>
<path d="M14.6668 14V12.6667C14.6668 11.4241 13.817 10.38 12.6668 10.084M10.3335 2.19384C11.3108 2.58943 12.0002 3.54754 12.0002 4.66667C12.0002 5.78579 11.3108 6.7439 10.3335 7.13949M5.3335 10H7.3335C8.57601 10 9.19726 10 9.68732 10.203C10.3407 10.4736 10.8599 10.9928 11.1305 11.6462C11.3335 12.1362 11.3335 14 11.3335 14H1.3335C1.3335 14 1.3335 12.1362 1.53648 11.6462C1.80713 10.9928 2.32627 10.4736 2.97967 10.203C3.46973 10 4.09099 10 5.3335 10ZM9.00016 4.66667C9.00016 6.13943 7.80626 7.33333 6.3335 7.33333C4.86074 7.33333 3.66683 6.13943 3.66683 4.66667C3.66683 3.19391 4.86074 2 6.3335 2C7.80626 2 9.00016 3.19391 9.00016 4.66667Z" stroke="#F4F4F4" stroke-width="1.35" stroke-linecap="round" stroke-linejoin="round"/>
<rect x="2" y="10" width="9" height="4" rx="1" fill="#F4F4F4"/>
</svg>
