<svg width="20" height="20" viewBox="0 0 20 20" fill="none" xmlns="http://www.w3.org/2000/svg">
<path d="M5.33333 6.89181H9.5M5.33333 9.80847H12M5.33333 14.8085V16.7547C5.33333 17.1988 5.33333 17.4208 5.42436 17.5348C5.50352 17.634 5.62356 17.6917 5.75045 17.6915C5.89636 17.6914 6.06973 17.5527 6.41646 17.2753L8.40434 15.685C8.81043 15.3601 9.01347 15.1977 9.23957 15.0822C9.44017 14.9797 9.65369 14.9048 9.87435 14.8595C10.1231 14.8085 10.3831 14.8085 10.9031 14.8085H13C14.4001 14.8085 15.1002 14.8085 15.635 14.536C16.1054 14.2963 16.4878 13.9139 16.7275 13.4434C17 12.9087 17 12.2086 17 10.8085V6.30847C17 4.90834 17 4.20827 16.7275 3.6735C16.4878 3.20309 16.1054 2.82064 15.635 2.58096C15.1002 2.30847 14.4001 2.30847 13 2.30847H6C4.59987 2.30847 3.8998 2.30847 3.36502 2.58096C2.89462 2.82064 2.51217 3.20309 2.27248 3.6735C2 4.20827 2 4.90834 2 6.30847V11.4751C2 12.2501 2 12.6376 2.08519 12.9555C2.31635 13.8182 2.99022 14.4921 3.85295 14.7233C4.17087 14.8085 4.55836 14.8085 5.33333 14.8085Z" stroke="#F9F9FB" stroke-width="1.5" stroke-linecap="round" stroke-linejoin="round"/>
</svg>
