<svg width="12" height="16" viewBox="0 0 12 16" fill="none" xmlns="http://www.w3.org/2000/svg">
<path d="M11.3337 12.6666V10.6666H2.66699C1.56242 10.6666 0.666992 11.5621 0.666992 12.6666M3.86699 14.6666H9.20033C9.94706 14.6666 10.3204 14.6666 10.6056 14.5213C10.8565 14.3935 11.0605 14.1895 11.1883 13.9386C11.3337 13.6534 11.3337 13.28 11.3337 12.5333V3.46665C11.3337 2.71991 11.3337 2.34654 11.1883 2.06133C11.0605 1.81044 10.8565 1.60647 10.6056 1.47864C10.3204 1.33331 9.94706 1.33331 9.20033 1.33331H3.86699C2.74689 1.33331 2.18683 1.33331 1.75901 1.5513C1.38269 1.74305 1.07673 2.04901 0.884979 2.42533C0.666992 2.85316 0.666992 3.41321 0.666992 4.53331V11.4666C0.666992 12.5868 0.666992 13.1468 0.884979 13.5746C1.07673 13.951 1.38269 14.2569 1.75901 14.4487C2.18683 14.6666 2.74689 14.6666 3.86699 14.6666Z" stroke="#F4F4F4" stroke-width="1.35" stroke-linecap="round" stroke-linejoin="round"/>
</svg>
