<svg width="16" height="16" viewBox="0 0 16 16" fill="none" xmlns="http://www.w3.org/2000/svg">
<g clip-path="url(#clip0_6022_337)">
<path d="M1.33301 8L7.76116 11.2141C7.84862 11.2578 7.89234 11.2797 7.93821 11.2883C7.97883 11.2959 8.02052 11.2959 8.06114 11.2883C8.10701 11.2797 8.15073 11.2578 8.23819 11.2141L14.6663 8M1.33301 11.3333L7.76116 14.5474C7.84862 14.5911 7.89234 14.613 7.93821 14.6216C7.97883 14.6292 8.02052 14.6292 8.06114 14.6216C8.10701 14.613 8.15073 14.5911 8.23819 14.5474L14.6663 11.3333M1.33301 4.66667L7.76116 1.45259C7.84862 1.40887 7.89234 1.387 7.93821 1.3784C7.97883 1.37078 8.02052 1.37078 8.06114 1.3784C8.10701 1.387 8.15073 1.40887 8.23819 1.45259L14.6663 4.66667L8.23819 7.88075C8.15073 7.92447 8.10701 7.94634 8.06114 7.95494C8.02052 7.96256 7.97883 7.96256 7.93821 7.95494C7.89234 7.94634 7.84862 7.92447 7.76116 7.88075L1.33301 4.66667Z" stroke="#F4F4F4" stroke-width="1.35" stroke-linecap="round" stroke-linejoin="round"/>
</g>
<defs>
<clipPath id="clip0_6022_337">
<rect width="16" height="16" fill="white"/>
</clipPath>
</defs>
</svg>
